<?xml version="1.0" encoding="utf-8"?>
<!-- Generator: Adobe Illustrator 26.2.1, SVG Export Plug-In . SVG Version: 6.00 Build 0)  -->
<svg version="1.1" id="Layer_1" xmlns="http://www.w3.org/2000/svg" xmlns:xlink="http://www.w3.org/1999/xlink" x="0px" y="0px"
	 viewBox="0 0 1024 1024" style="enable-background:new 0 0 1024 1024;" xml:space="preserve">
<style type="text/css">
	.st0{fill:#FFFFFF;}
	.st1{fill:#E5D9BE;}
</style>
<g>
	<g>
		<circle cx="508.42" cy="511.73" r="499.43"/>
	</g>
	<g>
		<path class="st0" d="M508.42,1012c-133.63,0-259.25-52.04-353.74-146.52C60.19,770.99,8.16,645.36,8.16,511.73
			s52.04-259.25,146.52-353.74C249.17,63.51,374.8,11.47,508.42,11.47c133.62,0,259.25,52.04,353.74,146.52
			s146.52,220.12,146.52,353.74c0,133.63-52.04,259.25-146.52,353.74S642.05,1012,508.42,1012z M508.42,13.14
			c-133.18,0-258.39,51.86-352.56,146.03C61.69,253.35,9.83,378.56,9.83,511.73s51.86,258.39,146.03,352.56
			c94.17,94.17,219.38,146.03,352.56,146.03s258.39-51.86,352.56-146.03c94.17-94.17,146.04-219.38,146.04-352.56
			s-51.86-258.39-146.04-352.56S641.6,13.14,508.42,13.14z"/>
	</g>
</g>
<g>
	<g>
		<g>
			<path class="st1" d="M249.9,359.46l-27.07,161.19h-42.01l-27.69-160.88c-0.93-4.67-3.11-7.47-8.09-7.47v-5.6h48.23v5.6
				c-5.29,0-6.54,2.18-6.54,5.29c0,1.87,0.31,3.73,0.62,6.22l14.31,114.51h1.56l15.25-114.51c0.31-2.49,0.62-4.36,0.62-5.6
				c0-3.73-1.25-5.91-6.54-5.91v-5.6h45.43v5.6C253.94,352.3,250.52,355.42,249.9,359.46z"/>
			<path class="st0" d="M223.53,521.48h-43.42L152.3,359.91c-0.95-4.74-3.12-6.77-7.27-6.77h-0.84v-7.27h49.9v7.27h-0.84
				c-4.75,0-5.7,1.7-5.7,4.45c0,1.42,0.19,2.83,0.42,4.62l0.19,1.5l14.22,113.78h0.09l15.15-113.79c0.08-0.67,0.17-1.3,0.25-1.88
				c0.21-1.54,0.37-2.76,0.37-3.61c0-3.29-0.91-5.08-5.7-5.08h-0.84v-7.27h47.1v7.27h-0.84c-3.58,0-6.7,2.77-7.27,6.45l0,0.01
				L223.53,521.48z M181.52,519.81h40.6l26.95-160.48c0.65-4.19,4.05-7.42,8.08-7.82v-3.97h-43.76v3.95
				c4.57,0.21,6.54,2.26,6.54,6.73c0,0.96-0.17,2.23-0.38,3.83c-0.08,0.58-0.16,1.2-0.24,1.87l-15.34,115.24h-3.03l-14.6-116.73
				c-0.23-1.78-0.44-3.31-0.44-4.84c0-3.94,2.08-5.9,6.54-6.11v-3.95h-46.56v3.96c4.45,0.28,7.03,2.88,8.07,8.11L181.52,519.81z"/>
		</g>
		<g>
			<path class="st1" d="M265.14,520.65v-5.6c5.29,0,9.02-4.04,9.02-9.65V361.33c0-5.6-3.11-9.02-9.02-9.02v-5.6h52.28v5.6
				c-6.22,0-9.34,3.42-9.34,9.02V505.4c0,5.91,3.42,9.65,9.34,9.65v5.6H265.14z"/>
			<path class="st0" d="M318.26,521.48h-53.95v-7.27h0.84c4.82,0,8.19-3.62,8.19-8.81V361.33c0-5.28-2.91-8.19-8.19-8.19h-0.84
				v-7.27h53.95v7.27h-0.84c-5.56,0-8.5,2.83-8.5,8.19V505.4c0,5.52,3.18,8.81,8.5,8.81h0.84V521.48z M265.98,519.81h50.61v-3.96
				c-5.78-0.34-9.34-4.28-9.34-10.46V361.33c0-5.99,3.39-9.54,9.34-9.84v-3.95h-50.61v3.95c5.67,0.32,9.02,3.95,9.02,9.84V505.4
				c0,5.77-3.75,10.04-9.02,10.45V519.81z"/>
		</g>
		<g>
			<path class="st1" d="M430.69,361.64V505.4c0,6.22,2.18,9.65,6.22,9.65v5.6h-37.96v-45.43l-29.56-62.23h-0.62v92.42
				c0,5.29,3.73,9.65,9.34,9.65v5.6H328v-5.6c5.6,0,9.02-4.36,9.02-9.65V361.64c0-5.6-3.73-9.34-9.02-9.34v-5.6h42.01
				c-0.31,3.11,1.24,8.4,2.8,11.51l25.83,56.94h0.31v-53.52c0-5.29-3.73-9.34-9.34-9.34v-5.6h50.1v5.6
				C434.42,352.3,430.69,356.35,430.69,361.64z"/>
			<path class="st0" d="M437.75,521.48h-39.63V475.4l-28.51-60.03v90.02c0,5.11,3.57,8.81,8.5,8.81h0.84v7.27h-51.77v-7.27H328
				c4.82,0,8.19-3.62,8.19-8.81V361.64c0-5.08-3.29-8.5-8.19-8.5h-0.84v-7.27h43.77l-0.09,0.92c-0.29,2.89,1.18,7.99,2.72,11.06
				l24.56,54.14v-50.34c0-5-3.5-8.5-8.5-8.5h-0.84v-7.27h51.77v7.27h-0.84c-4.75,0-8.19,3.57-8.19,8.5V505.4
				c0,4.02,0.93,8.81,5.39,8.81h0.84V521.48z M399.78,519.81h36.29v-3.98c-2.64-0.3-6.22-2.22-6.22-10.43V361.64
				c0-5.51,3.82-9.73,9.02-10.14v-3.96h-48.43v3.96c5.46,0.38,9.34,4.53,9.34,10.14V416h-1.68l-26.05-57.43
				c-1.51-3.02-2.92-7.76-2.91-11.02h-40.3v3.96c5.35,0.38,9.02,4.44,9.02,10.14V505.4c0,5.77-3.75,10.04-9.02,10.45v3.96h48.43
				v-3.96c-5.38-0.41-9.34-4.77-9.34-10.45v-93.25h1.99l29.87,63.07V519.81z"/>
		</g>
		<g>
			<path class="st1" d="M547.06,382.49c-2.49-5.91-4.67-9.65-13.07-9.65h-17.11V505.4c0,5.29,3.73,9.65,9.34,9.65v5.6h-52.59v-5.6
				c5.29,0,9.34-4.04,9.34-9.65V372.84h-17.74c-7.16,0-10.89,3.11-12.76,9.34l-5.6-1.87l6.85-35.78c2.49,1.24,7.47,2.18,12.14,2.18
				h69.08c4.67,0,8.09-0.93,10.89-2.49l7.16,36.41L547.06,382.49z"/>
			<path class="st0" d="M527.05,521.48h-54.26v-7.27h0.84c4.93,0,8.5-3.71,8.5-8.81V373.68h-16.9c-6.54,0-10.12,2.61-11.96,8.74
				l-0.25,0.82l-7.11-2.37l7.19-37.59l0.99,0.49c2.42,1.21,7.37,2.09,11.76,2.09h69.08c4.22,0,7.56-0.76,10.48-2.38l1-0.56
				l7.52,38.27l-7.35,2.32l-0.3-0.7c-2.38-5.66-4.25-9.13-12.3-9.13h-16.28V505.4c0,5.11,3.58,8.81,8.5,8.81h0.84V521.48z
				 M474.46,519.81h50.92v-3.96c-5.38-0.41-9.34-4.77-9.34-10.45V372.01h17.95c8.55,0,11.06,3.72,13.54,9.46l4.48-1.41l-6.8-34.58
				c-2.92,1.39-6.3,2.07-10.28,2.07h-69.08c-4.16,0-8.68-0.73-11.51-1.83l-6.51,34.04l4.11,1.37c2.14-6.29,6.28-9.11,13.3-9.11
				h18.57V505.4c0,5.68-3.96,10.04-9.34,10.45V519.81z"/>
		</g>
		<g>
			<path class="st1" d="M610.86,520.65v-5.6c4.98,0,6.22-3.11,6.22-5.29c0-0.93-0.62-10.89-1.56-16.18
				c-3.42,1.24-9.02,2.49-14.31,2.49s-10.89-1.24-14.32-2.49c-0.93,5.29-1.87,14.63-1.87,16.18c0,2.8,1.56,5.29,6.22,5.29v5.6
				h-45.43v-5.6c4.05,0,6.85-2.8,7.47-6.85l24.27-146.25c0.31-2.49,0.62-4.67,0.62-5.29c0-1.87-1.24-4.36-4.67-4.36v-5.6h58.5v5.6
				c-2.8,0-4.36,1.87-4.36,4.05c0,1.87,0.31,3.73,0.62,5.91l23.65,145.63c0.93,5.29,3.42,7.16,7.78,7.16v5.6H610.86z M600.9,380.93
				h-0.31l-9.96,84.95c2.49,1.56,6.53,2.49,10.89,2.49c4.05,0,8.09-1.24,10.58-2.49L600.9,380.93z"/>
			<path class="st0" d="M660.55,521.48h-50.53v-7.27h0.84c4.86,0,5.39-3.12,5.39-4.45c0-0.85-0.55-9.69-1.38-15.07
				c-3.33,1.08-8.55,2.21-13.65,2.21c-5.11,0-10.33-1.13-13.66-2.21c-0.87,5.38-1.69,13.69-1.69,15.07c0,2.96,1.81,4.45,5.39,4.45
				h0.84v7.27h-47.1v-7.27h0.84c3.52,0,6.06-2.35,6.64-6.14l24.27-146.26l0.24-1.88c0.19-1.48,0.37-2.87,0.37-3.27
				c0-1.31-0.81-3.52-3.83-3.52h-0.84v-7.27h60.17v7.27h-0.84c-2.43,0-3.52,1.61-3.52,3.21c0,1.58,0.23,3.16,0.5,5l0.12,0.8
				l23.65,145.61c0.82,4.64,2.77,6.46,6.96,6.46h0.84V521.48z M611.69,519.81h47.19v-3.96c-4.45-0.26-6.86-2.71-7.77-7.82
				l-23.77-146.45c-0.28-1.9-0.52-3.54-0.52-5.24c0-2.6,1.75-4.5,4.36-4.83v-3.98h-56.83v3.98c3.2,0.37,4.67,2.84,4.67,5.14
				c0,0.49-0.14,1.59-0.38,3.49l-0.24,1.91l-24.28,146.29c-0.66,4.28-3.55,7.15-7.46,7.51v3.97h43.76v-3.96
				c-5.6-0.36-6.22-4.34-6.22-6.1c0-1.74,0.96-11.13,1.88-16.33l0.17-0.98l0.93,0.34c3.09,1.12,8.63,2.44,14.03,2.44
				s10.93-1.31,14.03-2.44l0.93-0.34l0.17,0.98c0.95,5.41,1.57,15.37,1.57,16.33c0,2.8-1.65,5.77-6.22,6.1V519.81z M601.52,469.21
				c-4.47,0-8.71-0.98-11.33-2.62l-0.45-0.28l0.06-0.53l10.04-85.69h1.79l11.37,86.27l-0.53,0.27
				C609.98,467.87,605.8,469.21,601.52,469.21z M591.52,465.44c2.39,1.32,6.08,2.1,10,2.1c3.69,0,7.32-1.07,9.67-2.15l-10.41-78.95
				L591.52,465.44z"/>
		</g>
		<g>
			<path class="st1" d="M762.09,443.48v54.46c0,5.6,0.93,11.2,2.49,14.94c-9.02,5.29-22.72,11.2-45.43,11.2
				c-37.65,0-55.08-34.23-55.08-92.11c0-63.48,27.38-89,58.81-89c5.29,0,14,1.24,18.05,1.24c1.87,0,4.98-0.31,6.85-1.24l5.29,35.47
				l-6.22,1.56c-3.73-7.16-9.02-10.89-19.29-10.89c-18.05,0-28.94,19.6-28.94,62.55c0,55.39,10.89,65.66,25.51,65.66
				c1.56,0,4.05,0,4.05,0v-53.83c0-5.6-3.73-8.71-9.02-8.71v-6.22h52.28v6.22C766.13,434.76,762.09,438.19,762.09,443.48z"/>
			<path class="st0" d="M719.14,524.91c-36.58,0-55.91-32.14-55.91-92.94c0-56.25,22.3-89.83,59.65-89.83
				c2.86,0,6.61,0.35,10.24,0.69c3.07,0.29,5.96,0.56,7.81,0.56c2.07,0,4.87-0.36,6.47-1.16l1.03-0.51l5.57,37.36l-7.6,1.9
				l-0.31-0.58c-3.87-7.42-9.24-10.44-18.55-10.44c-18.39,0-28.1,21.34-28.1,61.71c0,56.97,11.86,64.82,24.68,64.82h3.21v-53
				c0-4.86-3.14-7.88-8.19-7.88h-0.84v-7.89h53.95v7.89h-0.84c-5,0-8.5,3.24-8.5,7.88v54.46c0,5.51,0.91,10.97,2.43,14.62l0.28,0.67
				l-0.63,0.37C756.71,518.45,742.94,524.91,719.14,524.91z M722.88,343.8c-36.3,0-57.98,32.96-57.98,88.16
				c0,41.64,9.41,91.27,54.24,91.27c22.81,0,36.21-6.02,44.39-10.73c-1.44-3.81-2.28-9.19-2.28-14.58v-54.46
				c0-5.36,3.8-9.17,9.34-9.52v-4.58h-50.61v4.58c5.51,0.33,9.02,4,9.02,9.52v54.67h-4.88c-21.87,0-26.35-26.58-26.35-66.49
				c0-52.39,16.19-63.38,29.77-63.38c9.65,0,15.59,3.23,19.72,10.76l4.86-1.21l-5.02-33.67c-1.92,0.66-4.42,0.9-6.18,0.9
				c-1.93,0-4.86-0.27-7.97-0.56C729.37,344.15,725.66,343.8,722.88,343.8z"/>
		</g>
		<g>
			<path class="st1" d="M864.15,522.52c-2.49-1.24-6.85-1.87-11.82-1.87H779.2v-5.6c5.29,0,9.02-4.04,9.02-9.65V361.33
				c0-5.6-3.73-9.02-9.02-9.02v-5.6h70.95c6.85,0,9.96-0.93,12.14-1.87l6.85,35.16l-5.6,1.87c-1.87-5.91-4.98-9.02-10.27-9.02
				h-31.43v38.9h25.83c5.29,0,10.27-2.8,10.27-8.09h5.6v43.25h-5.6c0-5.29-3.73-8.71-10.27-8.71h-25.52v56.01h30.81
				c6.22,0,9.34-4.05,12.14-9.96l5.6,1.87L864.15,522.52z"/>
			<path class="st0" d="M864.77,523.76l-1-0.5c-2.26-1.13-6.43-1.78-11.45-1.78h-73.96v-7.27h0.84c4.82,0,8.19-3.62,8.19-8.81
				V361.33c0-4.97-3.21-8.19-8.19-8.19h-0.84v-7.27h71.78c6.7,0,9.73-0.91,11.81-1.8l0.95-0.41l7.19,36.9l-7.1,2.37l-0.25-0.81
				c-1.84-5.84-4.76-8.44-9.47-8.44h-30.59v37.23h24.99c4.54,0,9.43-2.27,9.43-7.26v-0.84h7.27v44.92h-7.27v-0.84
				c0-4.93-3.53-7.88-9.43-7.88h-24.68v54.34h29.97c5.74,0,8.61-3.63,11.38-9.48l0.32-0.67l6.99,2.33L864.77,523.76z M780.03,519.81
				h72.29c4.69,0,8.6,0.54,11.19,1.52l6.22-34.66l-4.22-1.41c-2.89,5.89-6.21,9.77-12.57,9.77H821.3v-57.68h26.35
				c6.52,0,10.69,3.31,11.07,8.71h3.96v-41.58h-3.97c-0.5,5.55-5.97,8.09-11.07,8.09h-26.66v-40.57h32.26c5.25,0,8.7,2.8,10.8,8.8
				l4.11-1.37l-6.51-33.45c-2.21,0.82-5.44,1.55-11.51,1.55h-70.11v3.96c5.43,0.36,9.02,4.22,9.02,9.83V505.4
				c0,5.77-3.75,10.04-9.02,10.45V519.81z"/>
		</g>
	</g>
	<g>
		<g>
			<path class="st0" d="M266.75,655.63h-3.77l-16.41-38.2l-16.22,38.2h-3.77l-19.34-55.28h4.62l16.79,49.05l16.04-38.39h4.06
				l16.04,38.2l16.7-48.86h4.72L266.75,655.63z"/>
			<path d="M267.34,656.47h-4.92l-15.86-36.91l-15.68,36.91h-4.92l-19.92-56.95h6.4l16.27,47.53l15.4-36.87h5.17l15.4,36.69
				l16.18-47.35h6.49L267.34,656.47z M263.53,654.8h2.63L285,601.19h-2.94l-17.21,50.38l-16.67-39.72h-2.94l-16.67,39.91
				l-17.31-50.57h-2.85l18.75,53.61h2.63l16.77-39.49L263.53,654.8z"/>
		</g>
		<g>
			<path class="st0" d="M315.81,655.63v-55.28h4.25v55.28H315.81z"/>
			<path d="M320.89,656.47h-5.92v-56.95h5.92V656.47z M316.64,654.8h2.57v-53.61h-2.57V654.8z"/>
		</g>
		<g>
			<path class="st0" d="M401.18,649.13v-48.77h4.15v55.28h-3.68l-45.56-49.8v49.8h-4.25v-55.28h4.62L401.18,649.13z"/>
			<path d="M406.16,656.47h-4.88l-0.25-0.27l-44.11-48.22v48.49h-5.92v-56.95h5.82l43.51,47.46v-47.46h5.82V656.47z M402.02,654.8
				h2.48v-53.61h-2.48v50.08l-45.91-50.08h-3.42v53.61h2.57v-51.12L402.02,654.8z"/>
		</g>
		<g>
			<path class="st0" d="M441.18,604.41v21.22h34.34v4.06h-34.34v21.88h43.48l-0.85,4.06h-46.88v-55.28H484l0.66,4.06H441.18z"/>
			<path d="M484.49,656.47H436.1v-56.95h48.62l0.93,5.73h-43.63v19.55h34.34v5.73h-34.34v20.21h43.68L484.49,656.47z M437.77,654.8
				h45.37l0.5-2.39h-43.29v-23.55h34.34v-2.38h-34.34v-22.9h43.34l-0.39-2.38h-45.52V654.8z"/>
		</g>
		<g>
			<path class="st0" d="M584.85,654.6c-3.11,1.23-7.83,2.83-18.21,2.83c-18.21,0-32.17-12.64-32.17-29.62
				c0-15.94,13.49-29.15,31.7-29.15c8.77,0,15.28,1.41,18.39,2.83l1.23,5.09c-5.57-2.64-10.28-3.96-18.77-3.96
				c-16.32,0-28.39,11.51-28.39,25.19c0,14.53,13.02,25.56,28.49,25.56c8.96,0,14.43-1.6,18.96-3.87L584.85,654.6z"/>
			<path d="M566.64,658.26c-18.81,0-33-13.09-33-30.45c0-16.81,14.29-29.98,32.53-29.98c9.11,0,15.65,1.5,18.74,2.91l0.37,0.17
				l1.73,7.19l-1.58-0.75c-5.3-2.52-9.81-3.88-18.41-3.88c-15.45,0-27.56,10.7-27.56,24.35c0,13.64,12.41,24.73,27.65,24.73
				c7.73,0,13.29-1.13,18.59-3.78l1.61-0.8l-1.75,7.26l-0.4,0.16C581.35,656.87,576.47,658.26,566.64,658.26z M566.17,599.49
				c-17.31,0-30.86,12.44-30.86,28.31c0,16.41,13.47,28.78,31.33,28.78c10.29,0,14.94-1.62,17.5-2.61l0.72-2.98
				c-5.04,2.21-10.6,3.21-17.74,3.21c-16.17,0-29.32-11.84-29.32-26.4c0-14.59,12.84-26.02,29.23-26.02
				c8.01,0,12.75,1.21,17.56,3.32l-0.73-3.02C580.78,600.81,574.66,599.49,566.17,599.49z"/>
		</g>
		<g>
			<path class="st0" d="M655.31,655.63h-43.11v-55.28h4.24v51.22h39.71L655.31,655.63z"/>
			<path d="M655.99,656.47h-44.62v-56.95h5.91v51.22h39.91L655.99,656.47z M613.04,654.8h41.59l0.5-2.39h-39.52v-51.22h-2.57V654.8z
				"/>
		</g>
		<g>
			<path class="st0" d="M680.79,645.45c0.47-1.51,0.66-3.11,0.66-5.57v-39.52h4.15v44.43c4.06,4.9,7.83,8.58,22.45,8.58
				c13.58,0,18.21-2.83,22.54-8.58v-44.43h4.15v38.77c0,3.49,0.19,4.34,0.66,6.41c-6.04,7.92-11.22,11.89-27.35,11.89
				C692.2,657.43,686.35,653.27,680.79,645.45z"/>
			<path d="M708.05,658.26c-16.12,0-22.26-4.33-27.94-12.33l-0.24-0.34l0.12-0.4c0.44-1.42,0.62-2.96,0.62-5.32v-40.36h5.82v44.96
				c4.06,4.87,7.91,8.05,21.61,8.05c13.14,0,17.54-2.59,21.71-8.03v-44.98h5.82v39.6c0,3.42,0.17,4.18,0.64,6.23l0.09,0.38
				l-0.24,0.31C729.63,654.49,724.06,658.26,708.05,658.26z M681.7,645.29c5.41,7.49,11.09,11.3,26.34,11.3
				c15.2,0,20.35-3.32,26.45-11.25c-0.41-1.8-0.59-2.84-0.59-6.22v-37.93h-2.48v43.87l-0.17,0.22c-4.46,5.91-9.27,8.92-23.21,8.92
				c-14.62,0-18.79-3.68-23.09-8.89l-0.19-0.23v-43.89h-2.48v38.69C682.28,642.21,682.11,643.82,681.7,645.29z"/>
		</g>
		<g>
			<path class="st0" d="M813.32,640.92c0,10-7.83,15.47-26.69,15.47c-5,0-14.9-0.57-20.56-0.94v-54.8
				c5.28-0.57,13.4-1.32,20.38-1.32c14.43,0,25,2.26,25,13.3c0,8.21-6.41,12.36-11.88,14.24
				C805.87,628.18,813.32,631.67,813.32,640.92z M770.31,604.32v20.75c4.15,0.19,11.51,0.19,15.47,0.19
				c9.62,0,21.32-3.21,21.32-12.17c0-7.92-7.36-9.72-19.9-9.72C781.06,603.38,774.46,603.85,770.31,604.32z M770.31,629.41v22.26
				c4.43,0.38,12.55,0.66,16.89,0.66c16.32,0,21.88-4.15,21.88-11.6c0-8.96-10.38-11.41-22.92-11.41
				C782.01,629.32,775.22,629.32,770.31,629.41z"/>
			<path d="M786.63,657.22c-4.77,0-14.09-0.51-20.62-0.95l-0.78-0.05v-56.34l0.75-0.08c8.2-0.88,15.09-1.32,20.46-1.32
				c22.76,0,25.83,7.14,25.83,14.13c0,7.85-5.5,11.99-10.02,14.06c7.8,2.32,11.91,7.21,11.91,14.24
				C814.16,651.89,805.15,657.22,786.63,657.22z M766.9,654.66c5.42,0.35,14.91,0.89,19.73,0.89c17.64,0,25.86-4.65,25.86-14.63
				c0-6.97-4.41-11.42-13.11-13.24l-2.97-0.62l2.86-0.99c4.23-1.46,11.32-5.14,11.32-13.45c0-8.85-7-12.46-24.16-12.46
				c-5.16,0-11.73,0.42-19.54,1.24V654.66z M787.2,653.17c-4.33,0-12.51-0.28-16.96-0.66l-0.76-0.07v-23.85l0.82-0.02
				c4.91-0.09,11.77-0.09,15.86-0.09c15.99,0,23.76,4.01,23.76,12.25C809.92,649.33,802.91,653.17,787.2,653.17z M771.15,650.9
				c4.53,0.34,11.99,0.6,16.05,0.6c18.55,0,21.05-5.44,21.05-10.77c0-7.12-7.22-10.58-22.09-10.58c-3.87,0-10.19,0-15.01,0.08V650.9
				z M785.78,626.09c-3.96,0-11.34,0-15.51-0.19l-0.8-0.04v-22.3l0.74-0.08c3.84-0.44,10.6-0.95,16.98-0.95
				c12.45,0,20.74,1.79,20.74,10.55C807.93,622.69,796,626.09,785.78,626.09z M771.15,624.27c4.23,0.15,10.93,0.15,14.64,0.15
				c7.61,0,20.48-2.39,20.48-11.33c0-6.47-5.17-8.88-19.07-8.88c-5.92,0-12.16,0.45-16.05,0.86V624.27z"/>
		</g>
	</g>
	<g>
		<g>
			<path class="st0" d="M871.04,562.41H174.51c-0.46,0-0.84-0.37-0.84-0.84c0-0.46,0.37-0.84,0.84-0.84h696.53
				c0.46,0,0.84,0.37,0.84,0.84C871.88,562.03,871.5,562.41,871.04,562.41z"/>
		</g>
	</g>
</g>
</svg>
