<?xml version="1.0" encoding="utf-8"?>
<!-- Generator: Adobe Illustrator 26.2.1, SVG Export Plug-In . SVG Version: 6.00 Build 0)  -->
<svg version="1.1" id="Layer_1" xmlns="http://www.w3.org/2000/svg" xmlns:xlink="http://www.w3.org/1999/xlink" x="0px" y="0px"
	 viewBox="0 0 1024 512" style="enable-background:new 0 0 1024 512;" xml:space="preserve">
<style type="text/css">
	.st0{fill:#720618;}
</style>
<g>
	<g>
		<path class="st0" d="M179.6,75.35l-34.75,206.89H90.93L55.38,75.76c-1.2-5.99-3.99-9.58-10.38-9.58v-7.19h61.91v7.19
			c-6.79,0-8.39,2.8-8.39,6.79c0,2.4,0.4,4.79,0.8,7.99l18.37,146.98h2l19.57-146.98c0.4-3.19,0.8-5.59,0.8-7.19
			c0-4.79-1.6-7.59-8.39-7.59v-7.19h58.31v7.19C184.79,66.17,180.4,70.17,179.6,75.35z"/>
		<path class="st0" d="M199.17,282.24v-7.19c6.79,0,11.58-5.19,11.58-12.38V77.76c0-7.19-3.99-11.58-11.58-11.58v-7.19h67.1v7.19
			c-7.99,0-11.98,4.39-11.98,11.58v184.92c0,7.59,4.39,12.38,11.98,12.38v7.19H199.17z"/>
		<path class="st0" d="M411.65,78.15v184.52c0,7.99,2.8,12.38,7.99,12.38v7.19h-48.73v-58.31l-37.94-79.88h-0.8v118.62
			c0,6.79,4.79,12.38,11.98,12.38v7.19h-64.3v-7.19c7.19,0,11.58-5.59,11.58-12.38V78.15c0-7.19-4.79-11.98-11.58-11.98v-7.19h53.92
			c-0.4,3.99,1.6,10.78,3.59,14.78l33.15,73.09h0.4v-68.7c0-6.79-4.79-11.98-11.98-11.98v-7.19h64.3v7.19
			C416.44,66.17,411.65,71.36,411.65,78.15z"/>
		<path class="st0" d="M561.02,104.92c-3.2-7.59-5.99-12.38-16.77-12.38h-21.97v170.15c0,6.79,4.79,12.38,11.98,12.38v7.19h-67.5
			v-7.19c6.79,0,11.98-5.19,11.98-12.38V92.52h-22.77c-9.19,0-13.98,3.99-16.38,11.98l-7.19-2.4l8.79-45.93
			c3.19,1.6,9.59,2.8,15.58,2.8h88.67c5.99,0,10.38-1.2,13.98-3.19l9.19,46.73L561.02,104.92z"/>
		<path class="st0" d="M642.9,282.24v-7.19c6.39,0,7.99-3.99,7.99-6.79c0-1.2-0.8-13.98-2-20.77c-4.39,1.6-11.58,3.19-18.37,3.19
			s-13.98-1.6-18.37-3.19c-1.2,6.79-2.4,18.77-2.4,20.77c0,3.59,2,6.79,7.99,6.79v7.19h-58.31v-7.19c5.19,0,8.79-3.59,9.59-8.79
			l31.15-187.72c0.4-3.19,0.8-5.99,0.8-6.79c0-2.4-1.6-5.59-5.99-5.59v-7.19h75.09v7.19c-3.59,0-5.59,2.4-5.59,5.19
			c0,2.4,0.4,4.79,0.8,7.59l30.35,186.92c1.2,6.79,4.39,9.19,9.99,9.19v7.19H642.9z M630.12,102.92h-0.4l-12.78,109.04
			c3.2,2,8.39,3.19,13.98,3.19c5.19,0,10.38-1.6,13.58-3.19L630.12,102.92z"/>
		<path class="st0" d="M837.01,183.2v69.9c0,7.19,1.2,14.38,3.2,19.17c-11.58,6.79-29.16,14.38-58.31,14.38
			c-48.33,0-70.69-43.93-70.69-118.22c0-81.48,35.15-114.23,75.49-114.23c6.79,0,17.97,1.6,23.17,1.6c2.4,0,6.39-0.4,8.79-1.6
			l6.79,45.53l-7.99,2c-4.79-9.19-11.58-13.98-24.76-13.98c-23.17,0-37.14,25.16-37.14,80.28c0,71.09,13.98,84.27,32.75,84.27
			c2,0,5.19,0,5.19,0v-69.1c0-7.19-4.79-11.18-11.58-11.18v-7.99h67.1v7.99C842.2,172.01,837.01,176.4,837.01,183.2z"/>
		<path class="st0" d="M968.01,284.65c-3.2-1.6-8.79-2.4-15.18-2.4h-93.86v-7.19c6.79,0,11.58-5.19,11.58-12.38V77.76
			c0-7.19-4.79-11.58-11.58-11.58v-7.19h91.06c8.79,0,12.78-1.2,15.58-2.4l8.79,45.13l-7.19,2.4c-2.4-7.59-6.39-11.58-13.18-11.58
			h-40.34v49.92h33.15c6.79,0,13.18-3.59,13.18-10.38h7.19v55.52h-7.19c0-6.79-4.79-11.18-13.18-11.18h-32.75v71.89h39.54
			c7.99,0,11.98-5.19,15.58-12.78l7.19,2.4L968.01,284.65z"/>
	</g>
	<g>
		<path d="M201.23,455.51h-4.84l-21.07-49.04l-20.82,49.04h-4.84l-24.82-70.95h5.93l21.55,62.96l20.58-49.28h5.21l20.58,49.03
			l21.43-62.72h6.05L201.23,455.51z"/>
		<path d="M264.2,455.51v-70.95h5.45v70.95H264.2z"/>
		<path d="M373.77,447.15v-62.59h5.33v70.95h-4.72l-58.48-63.93v63.93h-5.45v-70.95h5.93L373.77,447.15z"/>
		<path d="M425.11,389.77v27.24h44.07v5.21h-44.07v28.09h55.81l-1.09,5.21h-60.17v-70.95h60.42l0.85,5.21h-55.82V389.77z"/>
		<path d="M609.52,454.17c-4,1.57-10.05,3.63-23.37,3.63c-23.37,0-41.29-16.22-41.29-38.02c0-20.46,17.31-37.41,40.68-37.41
			c11.26,0,19.61,1.82,23.61,3.63l1.57,6.54c-7.14-3.39-13.2-5.09-24.09-5.09c-20.95,0-36.44,14.77-36.44,32.33
			c0,18.65,16.71,32.81,36.56,32.81c11.5,0,18.52-2.06,24.33-4.96L609.52,454.17z"/>
		<path d="M699.96,455.51h-55.33v-70.95h5.45v65.74h50.97L699.96,455.51z"/>
		<path d="M732.66,442.42c0.61-1.94,0.85-3.99,0.85-7.14v-50.73h5.33v57.03c5.21,6.3,10.05,11.02,28.82,11.02
			c17.43,0,23.37-3.63,28.94-11.02v-57.03h5.33v49.76c0,4.48,0.24,5.57,0.85,8.23c-7.75,10.17-14.41,15.25-35.11,15.25
			C747.31,457.8,739.8,452.47,732.66,442.42z"/>
		<path d="M902.78,436.61c0,12.83-10.05,19.86-34.26,19.86c-6.42,0-19.13-0.73-26.4-1.21v-70.34c6.78-0.73,17.19-1.7,26.15-1.7
			c18.52,0,32.08,2.91,32.08,17.07c0,10.53-8.23,15.86-15.25,18.28C893.21,420.28,902.78,424.76,902.78,436.61z M847.56,389.64
			v26.64c5.33,0.24,14.77,0.24,19.86,0.24c12.35,0,27.36-4.12,27.36-15.62c0-10.17-9.44-12.47-25.55-12.47
			C861.37,388.42,852.89,389.03,847.56,389.64z M847.56,421.84v28.57c5.69,0.48,16.1,0.85,21.67,0.85
			c20.95,0,28.09-5.33,28.09-14.89c0-11.5-13.32-14.65-29.42-14.65C862.58,421.72,853.86,421.72,847.56,421.84z"/>
	</g>
	<g>
		<path d="M976.86,336.91H82.84c-1.18,0-2.14-0.96-2.14-2.14s0.96-2.14,2.14-2.14h894.02c1.18,0,2.14,0.96,2.14,2.14
			C979,335.96,978.04,336.91,976.86,336.91z"/>
	</g>
</g>
</svg>
